<?xml version="1.0" encoding="utf-8"?>
<!-- Generator: Adobe Illustrator 16.0.0, SVG Export Plug-In . SVG Version: 6.00 Build 0)  -->
<!DOCTYPE svg PUBLIC "-//W3C//DTD SVG 1.1//EN" "http://www.w3.org/Graphics/SVG/1.1/DTD/svg11.dtd">
<svg version="1.1" id="Layer_1" xmlns="http://www.w3.org/2000/svg" xmlns:xlink="http://www.w3.org/1999/xlink" x="0px" y="0px"
	 width="128px" height="128px" viewBox="0 0 128 128" enable-background="new 0 0 128 128" xml:space="preserve">
<g>
	<g>
		<g>
			<g>
				<path fill="#281646" d="M112.57,64c0,26.818-21.748,48.561-48.562,48.561c-26.82,0-48.566-21.742-48.566-48.561
					s21.746-48.561,48.566-48.561C90.822,15.439,112.57,37.182,112.57,64z"/>
			</g>
		</g>
	</g>
	<g>
		<g id="N5LzV9.tif_13_">
			<g>
				<path fill-rule="evenodd" clip-rule="evenodd" fill="#F2F1F1" d="M28.117,46.889c0-0.543,0.385-1.426,0.91-1.664
					c0.613-0.279,1.293-0.254,1.834,0.014c0.701,0.35,1.029,1.082,1.055,1.65c0.105,2.285,0.043,4.578,0.043,7.096
					c2.709-1.705,5.479-2.062,8.334-1.414c4.783,1.092,7.686,4.709,8.049,10.262c0.271,4.121-0.648,7.928-4.066,10.695
					c-3.238,2.621-8.826,2.941-12.406,0.822c-2.193-1.297-3.752-4.404-3.752-5.676C28.117,61.262,28.117,54.301,28.117,46.889z
					 M31.975,67.418c0.035,2.205,1.012,3.783,3.113,4.604c3.395,1.326,7.297-0.285,8.668-3.65c0.979-2.406,1.096-4.92,0.502-7.438
					c-1.215-5.162-6.785-7.107-11.008-3.867c-0.861,0.66-1.279,1.418-1.309,2.631C31.9,61.562,31.953,66.064,31.975,67.418z"/>
				<path fill-rule="evenodd" clip-rule="evenodd" fill="#F2F1F1" d="M83.539,74.229c0,2.211,0.02,4.287-0.01,6.361
					c-0.021,1.621-0.691,2.426-1.92,2.414c-1.213-0.012-1.877-0.863-1.877-2.457C79.725,74,79.727,67.451,79.727,60.904
					c0-4.762,2.758-7.867,7.525-8.482c8.754-1.131,13.109,5.021,12.602,12.674c-0.332,4.973-2.738,8.625-7.695,10.199
					C89.596,76.109,87.533,75.818,83.539,74.229z M83.58,68.605c0.078,0.723,0.414,1.584,0.93,2.07
					c3.502,3.312,9.492,1.928,10.871-2.668c0.613-2.035,0.725-4.389,0.416-6.504c-0.619-4.262-3.311-6.184-7.465-5.875
					c-2.916,0.215-4.783,2.217-4.793,5.135C83.537,61.982,83.438,67.223,83.58,68.605z"/>
				<path fill-rule="evenodd" clip-rule="evenodd" fill="#F2F1F1" d="M53.934,58.576c-0.002-3.789,0.004-7.58-0.002-11.369
					c-0.002-1.068,0.219-2.006,1.41-2.322c1.322-0.352,2.387,0.572,2.404,2.156v22.064c0.002,2.396,0.434,2.938,2.748,3.326
					c0.988,0.166,1.613,0.648,1.568,1.678c-0.049,1.098-0.781,1.535-1.809,1.602c-3.738,0.244-6.229-1.973-6.303-5.764
					C53.879,66.158,53.936,62.367,53.934,58.576z"/>
				<path fill-rule="evenodd" clip-rule="evenodd" fill="#F2F1F1" d="M66.559,58.576c0-3.789,0.004-0.033-0.002-3.822
					c-0.002-1.068,0.219-2.004,1.412-2.322c1.32-0.352,2.375,0.574,2.391,2.156c0.031,3.203,0.01,6.408,0.01,9.611
					c0,4.15-0.004,0.756,0.002,4.906c0.002,2.396,0.436,2.938,2.748,3.326c0.986,0.166,1.613,0.648,1.566,1.678
					c-0.047,1.098-0.779,1.535-1.809,1.602c-3.736,0.244-6.227-1.973-6.301-5.764C66.504,66.158,66.562,62.367,66.559,58.576z"/>
			</g>
		</g>
		<circle fill-rule="evenodd" clip-rule="evenodd" fill="#F2F1F1" cx="68.573" cy="46.844" r="2.034"/>
	</g>
	<g>
		<g>
			<path fill="#99CA5B" d="M81.314,30.182l0.438-0.438l-0.438-0.438l-1.713-1.713l-0.436-0.438l-0.438,0.438l-8.822,8.822
				l-0.438,0.438l0.438,0.438l8.822,8.82l0.438,0.438l0.436-0.438l1.713-1.711l0.438-0.438l-0.438-0.438l-4.844-4.844h28.994
				c-0.775-1.258-1.602-2.48-2.486-3.658H76.471L81.314,30.182z"/>
		</g>
	</g>
	<path fill="#FFD281" d="M124.289,50.453c0-6.461-5.258-11.719-11.719-11.719l-0.385-0.059h-6.758
		c-0.865-1.482-2.449-3.652-2.449-3.652h9.592c8.508,0,15.43,6.922,15.43,15.43"/>
	<path fill="#F48B7C" d="M112.57,62.172c6.461,0,11.719-5.258,11.719-11.719H128c0,8.508-6.922,15.428-15.43,15.428"/>
	<g>
		<g>
			<path fill="#99CA5B" d="M46.686,97.738l-0.438,0.438l0.438,0.438l1.713,1.711l0.436,0.438l0.438-0.438l8.822-8.82l0.438-0.438
				l-0.438-0.438l-8.822-8.82l-0.438-0.438l-0.436,0.438l-1.713,1.711l-0.438,0.438l0.438,0.438l4.844,4.844H22.51
				c0.709,1.148,1.504,2.35,2.486,3.658h26.533L46.686,97.738z"/>
		</g>
	</g>
	<path fill="#7CCBEA" d="M3.711,77.467c0,6.461,5.258,11.719,11.719,11.719l0.354,0.025l6.727,0.027c0,0,1.883,2.834,2.486,3.658
		H15.43C6.922,92.896,0,85.975,0,77.467"/>
	<path fill="#0D9DB2" d="M15.43,65.748c-6.461,0-11.719,5.258-11.719,11.719H0c0-8.508,6.922-15.43,15.43-15.43"/>
</g>
</svg>
