<?xml version="1.0" encoding="utf-8"?>
<!-- Generator: Adobe Illustrator 16.0.0, SVG Export Plug-In . SVG Version: 6.00 Build 0)  -->
<!DOCTYPE svg PUBLIC "-//W3C//DTD SVG 1.1//EN" "http://www.w3.org/Graphics/SVG/1.1/DTD/svg11.dtd">
<svg version="1.1" id="Layer_1" xmlns="http://www.w3.org/2000/svg" xmlns:xlink="http://www.w3.org/1999/xlink" x="0px" y="0px"
	 width="185.191px" height="20px" viewBox="0 0 185.191 20" enable-background="new 0 0 185.191 20" xml:space="preserve">
<path fill="#281946" d="M5.723,0C4.926,0,4.275,0.648,4.275,1.447c0,0.8,0.649,1.447,1.447,1.447c0.801,0,1.448-0.647,1.448-1.447
	C7.172,0.648,6.523,0,5.723,0 M1.447,0C0.648,0,0,0.648,0,1.447c0,0.8,0.648,1.447,1.447,1.447s1.447-0.647,1.447-1.447
	C2.895,0.648,2.246,0,1.447,0 M10,12.83c-0.799,0-1.446,0.646-1.446,1.443c0,0.803,0.647,1.449,1.446,1.449s1.447-0.646,1.447-1.449
	C11.447,13.477,10.799,12.83,10,12.83 M10,17.102c-0.799,0-1.446,0.648-1.446,1.443c0,0.803,0.647,1.449,1.446,1.449
	s1.447-0.646,1.447-1.449C11.447,17.75,10.799,17.102,10,17.102 M30.258,0c-0.803,0-1.45,0.648-1.45,1.447
	c0,0.8,0.647,1.447,1.45,1.447c0.796,0,1.443-0.647,1.443-1.447C31.701,0.648,31.053,0,30.258,0 M30.258,4.276
	c-0.803,0-1.45,0.649-1.45,1.448c0,0.798,0.647,1.447,1.45,1.447c0.796,0,1.443-0.649,1.443-1.447
	C31.701,4.926,31.053,4.276,30.258,4.276 M74.004,0c-0.799,0-1.446,0.648-1.446,1.447c0,0.8,0.647,1.447,1.446,1.447
	c0.8,0,1.447-0.647,1.447-1.447C75.451,0.648,74.803,0,74.004,0 M78.281,0c-0.801,0-1.449,0.648-1.449,1.447
	c0,0.8,0.648,1.447,1.449,1.447c0.799,0,1.447-0.647,1.447-1.447C79.729,0.648,79.08,0,78.281,0 M78.281,17.102
	c-0.801,0-1.449,0.648-1.449,1.447s0.648,1.445,1.449,1.445c0.799,0,1.447-0.646,1.447-1.445S79.08,17.102,78.281,17.102
	 M82.557,17.102c-0.384,0-0.754,0.152-1.023,0.424c-0.27,0.271-0.424,0.646-0.424,1.027c0,0.379,0.154,0.752,0.424,1.021
	c0.271,0.27,0.641,0.422,1.023,0.422c0.377,0,0.752-0.152,1.021-0.422c0.271-0.269,0.426-0.642,0.426-1.021
	c0-0.381-0.155-0.758-0.426-1.027C83.309,17.254,82.934,17.102,82.557,17.102 M82.557,0c-0.8,0-1.447,0.648-1.447,1.447
	c0,0.8,0.647,1.447,1.447,1.447c0.799,0,1.446-0.647,1.446-1.447C84.004,0.648,83.355,0,82.557,0 M69.729,17.105
	c-0.801,0-1.447,0.647-1.447,1.446c0,0.804,0.646,1.447,1.447,1.447c0.799,0,1.446-0.646,1.446-1.447
	C71.176,17.754,70.527,17.105,69.729,17.105 M74.004,17.102c-0.799,0-1.446,0.648-1.446,1.447s0.647,1.445,1.446,1.445
	c0.8,0,1.447-0.646,1.447-1.445S74.803,17.102,74.004,17.102 M69.729,12.826c-0.801,0-1.447,0.646-1.447,1.447
	c0,0.803,0.646,1.444,1.447,1.444c0.799,0,1.446-0.643,1.446-1.444C71.176,13.473,70.527,12.826,69.729,12.826 M183.746,17.102
	c-0.801,0-1.447,0.648-1.447,1.447s0.646,1.445,1.447,1.445c0.797,0,1.445-0.646,1.445-1.445S184.542,17.102,183.746,17.102
	 M170.917,0c-0.801,0-1.449,0.648-1.449,1.447c0,0.8,0.648,1.447,1.449,1.447c0.797,0,1.445-0.647,1.445-1.447
	C172.363,0.648,171.714,0,170.917,0 M170.917,4.276c-0.801,0-1.449,0.65-1.449,1.448c0,0.798,0.648,1.447,1.449,1.447
	c0.797,0,1.445-0.649,1.445-1.447C172.362,4.926,171.714,4.276,170.917,4.276 M180.916,18.549c0-0.799-0.647-1.447-1.447-1.447
	c-0.799,0-1.446,0.648-1.446,1.447s0.647,1.445,1.446,1.445C180.268,19.994,180.916,19.348,180.916,18.549 M155.457,0.889
	c-0.727-0.328-1.586-0.009-1.916,0.721c-0.33,0.727-0.006,1.588,0.719,1.914h0.005c0.192,0.09,0.397,0.131,0.594,0.131
	c0.553,0,1.076-0.316,1.32-0.852C156.509,2.076,156.185,1.22,155.457,0.889 M144.65,15.523c-0.525,0.604-0.459,1.516,0.146,2.041
	c0.273,0.235,0.609,0.352,0.945,0.352c0.404,0,0.811-0.17,1.096-0.498c0.521-0.605,0.457-1.521-0.146-2.041
	C146.085,14.85,145.169,14.916,144.65,15.523 M144.519,12.014c-0.229-0.766-1.031-1.207-1.799-0.979
	c-0.765,0.229-1.205,1.03-0.978,1.801c0.187,0.627,0.76,1.037,1.385,1.037c0.136,0,0.275-0.021,0.414-0.06
	C144.306,13.586,144.746,12.779,144.519,12.014 M150.33,17.031h-0.002c-0.793-0.111-1.521,0.439-1.633,1.232
	c-0.113,0.788,0.436,1.522,1.227,1.635c0.068,0.008,0.14,0.012,0.205,0.012c0.709,0,1.328-0.52,1.433-1.242
	C151.669,17.877,151.119,17.143,150.33,17.031 M150.091,2.984c0.066,0,0.14-0.004,0.209-0.016c0.791-0.116,1.339-0.85,1.224-1.641
	c-0.117-0.79-0.849-1.338-1.642-1.223c-0.791,0.115-1.338,0.848-1.223,1.639C148.763,2.467,149.382,2.984,150.091,2.984
	 M145.714,4.998c0.341,0,0.681-0.119,0.953-0.359c0.603-0.524,0.664-1.434,0.14-2.041c-0.525-0.602-1.439-0.663-2.041-0.139
	c-0.603,0.525-0.668,1.439-0.14,2.041C144.912,4.828,145.312,4.998,145.714,4.998 M142.716,8.996
	c0.136,0.039,0.271,0.059,0.404,0.059c0.625,0,1.205-0.41,1.392-1.043c0.225-0.768-0.222-1.57-0.988-1.793
	c-0.765-0.225-1.566,0.219-1.791,0.984C141.509,7.971,141.947,8.773,142.716,8.996 M104.49,8.551c-0.799,0-1.447,0.648-1.447,1.447
	s0.648,1.447,1.447,1.447s1.447-0.648,1.447-1.447S105.289,8.551,104.49,8.551 M95.767,4.276c-0.8,0-1.447,0.649-1.447,1.448
	c0,0.798,0.647,1.447,1.447,1.447c0.799,0,1.444-0.649,1.444-1.447C97.212,4.926,96.566,4.276,95.767,4.276 M95.767,0
	c-0.8,0-1.447,0.648-1.447,1.447c0,0.8,0.647,1.447,1.447,1.447c0.799,0,1.444-0.647,1.444-1.447C97.212,0.648,96.566,0,95.767,0
	 M104.498,0c-0.801,0-1.449,0.648-1.449,1.447c0,0.8,0.648,1.447,1.449,1.447c0.797,0,1.445-0.647,1.445-1.447
	C105.943,0.648,105.294,0,104.498,0 M108.052,6.369c-0.799,0-1.446,0.648-1.446,1.446c0,0.8,0.647,1.447,1.446,1.447
	c0.8,0,1.449-0.647,1.449-1.447C109.501,7.018,108.851,6.369,108.052,6.369 M108.052,2.193c-0.799,0-1.446,0.648-1.446,1.446
	c0,0.8,0.647,1.448,1.446,1.448c0.8,0,1.449-0.648,1.449-1.448C109.501,2.842,108.851,2.193,108.052,2.193 M132.578,6.797
	c0.271,0,0.543-0.077,0.787-0.235c0.672-0.437,0.859-1.331,0.424-2.003c-0.436-0.668-1.33-0.861-2.002-0.425
	c-0.668,0.437-0.861,1.331-0.426,2.005C131.64,6.562,132.103,6.797,132.578,6.797 M128.355,16.461
	c-0.729,0.332-1.045,1.191-0.715,1.918c0.243,0.531,0.77,0.846,1.315,0.846c0.205,0,0.41-0.043,0.604-0.131
	c0.729-0.336,1.045-1.195,0.713-1.92C129.937,16.445,129.082,16.129,128.355,16.461 M133.38,13.398
	c-0.676-0.431-1.569-0.234-2.004,0.438c-0.432,0.672-0.233,1.566,0.437,2c0.244,0.154,0.514,0.232,0.78,0.232
	c0.478,0,0.941-0.238,1.22-0.666C134.244,14.729,134.052,13.832,133.38,13.398 M124.396,17.031
	c-0.793-0.111-1.525,0.439-1.638,1.232c-0.112,0.788,0.439,1.522,1.23,1.635c0.07,0.008,0.135,0.016,0.205,0.016
	c0.711,0,1.328-0.523,1.432-1.246C125.738,17.877,125.187,17.143,124.396,17.031 M118.714,15.523
	c-0.522,0.604-0.461,1.52,0.146,2.041c0.274,0.235,0.615,0.352,0.945,0.352c0.409,0,0.811-0.166,1.098-0.498
	c0.522-0.605,0.455-1.521-0.148-2.041C120.15,14.85,119.236,14.92,118.714,15.523 M133.943,8.516
	C133.144,8.52,132.5,9.17,132.5,9.97c0,0.008,0,0.019,0.004,0.027H132.5c0,0.802,0.648,1.446,1.447,1.446
	c0.803,0,1.451-0.646,1.451-1.446V9.959C135.396,9.159,134.742,8.51,133.943,8.516 M118.583,12.014
	c-0.225-0.768-1.028-1.201-1.799-0.979c-0.764,0.229-1.203,1.034-0.977,1.801c0.186,0.627,0.76,1.037,1.385,1.037
	c0.137,0,0.274-0.021,0.414-0.06C118.375,13.586,118.812,12.783,118.583,12.014 M128.328,3.523c0.193,0.09,0.396,0.128,0.594,0.128
	c0.554,0,1.078-0.313,1.32-0.849c0.332-0.727,0.008-1.586-0.717-1.914c-0.73-0.332-1.592-0.009-1.918,0.721
	C127.279,2.336,127.599,3.193,128.328,3.523 M45.027,0c-0.799,0-1.443,0.648-1.443,1.447c0,0.8,0.646,1.447,1.443,1.447
	c0.803,0,1.451-0.647,1.451-1.447C46.479,0.648,45.83,0,45.027,0 M49.451,0c-0.801,0-1.443,0.648-1.443,1.447
	c0,0.8,0.644,1.447,1.443,1.447c0.803,0,1.451-0.647,1.451-1.447C50.902,0.648,50.254,0,49.451,0 M53.666,1.193
	c-0.799,0-1.442,0.648-1.442,1.448c0,0.798,0.645,1.446,1.442,1.446c0.803,0,1.451-0.648,1.451-1.446
	C55.117,1.842,54.469,1.193,53.666,1.193 M56.732,4.312c-0.801,0-1.445,0.649-1.445,1.447c0,0.799,0.646,1.447,1.445,1.447
	c0.803,0,1.449-0.648,1.449-1.447C58.182,4.962,57.535,4.312,56.732,4.312 M45.027,4.276c-0.799,0-1.443,0.649-1.443,1.448
	c0,0.798,0.646,1.447,1.443,1.447c0.803,0,1.451-0.649,1.451-1.447C46.479,4.926,45.83,4.276,45.027,4.276 M45.027,17.105
	c-0.799,0-1.443,0.649-1.443,1.446c0,0.8,0.646,1.447,1.443,1.447c0.803,0,1.451-0.647,1.451-1.447
	C46.479,17.756,45.83,17.105,45.027,17.105 M45.027,12.826c-0.799,0-1.443,0.65-1.443,1.451c0,0.799,0.646,1.445,1.443,1.445
	c0.803,0,1.451-0.646,1.451-1.445C46.479,13.477,45.83,12.826,45.027,12.826 M45.027,8.553c-0.799,0-1.443,0.645-1.443,1.447
	c0,0.799,0.646,1.447,1.443,1.447c0.803,0,1.451-0.648,1.451-1.447C46.479,9.197,45.83,8.553,45.027,8.553 M100.134,0
	c-0.797,0-1.446,0.648-1.446,1.447c0,0.8,0.649,1.447,1.446,1.447c0.8,0,1.449-0.647,1.449-1.447C101.583,0.648,100.933,0,100.134,0
	 M57.857,8.541h-0.017c-0.745,0.007-1.346,0.618-1.338,1.363l0.002,0.094c0,3.934-3.198,7.164-7.133,7.199
	c-0.746,0.008-1.346,0.619-1.34,1.365c0.008,0.739,0.611,1.338,1.352,1.338h0.013c5.408-0.051,9.811-4.492,9.811-9.902V9.877
	C59.199,9.136,58.596,8.541,57.857,8.541 M78.377,8.646h-7.299V1.352c0-0.746-0.604-1.352-1.35-1.352
	c-0.746,0-1.353,0.605-1.353,1.352v8.646c0,0.746,0.605,1.35,1.353,1.35h8.647c0.746,0,1.353-0.604,1.353-1.35
	S79.123,8.646,78.377,8.646 M18.549,0.097H10c-0.746,0-1.35,0.605-1.35,1.351v8.544c0,0.744,0.604,1.351,1.35,1.351
	s1.353-0.604,1.353-1.351V2.799h7.196c0.748,0,1.354-0.604,1.354-1.352C19.902,0.702,19.297,0.097,18.549,0.097 M30.256,8.551
	c-0.746,0-1.352,0.604-1.352,1.352v8.742c0,0.746,0.604,1.351,1.352,1.351s1.351-0.604,1.351-1.351V9.902
	C31.605,9.155,31.002,8.551,30.256,8.551 M100.277,8.646h-4.512c-0.746,0-1.351,0.605-1.351,1.352v8.646
	c0,0.746,0.604,1.352,1.351,1.352s1.35-0.605,1.35-1.352v-7.297h3.162c0.746,0,1.35-0.604,1.35-1.351S101.023,8.646,100.277,8.646
	 M175.289,17.199h-3.021V9.902c0-0.747-0.604-1.352-1.351-1.352s-1.352,0.604-1.352,1.352v8.648c0,0.746,0.604,1.353,1.352,1.353
	h4.371c0.746,0,1.353-0.605,1.353-1.353S176.035,17.199,175.289,17.199 M124.019,0.189c-3.822,0.533-7.004,3.271-8.107,6.973
	c-0.213,0.715,0.193,1.468,0.908,1.68c0.117,0.037,0.236,0.055,0.354,0.057c0.597,0.014,1.148-0.368,1.326-0.965
	c0.803-2.69,3.115-4.681,5.896-5.068c0.735-0.104,1.254-0.785,1.149-1.524C125.441,0.603,124.761,0.086,124.019,0.189 M157.882,4.34
	c-0.633,0.395-0.825,1.227-0.432,1.86c0.707,1.138,1.082,2.451,1.082,3.798c0,2.867-1.697,5.459-4.324,6.604
	c-0.684,0.299-0.996,1.094-0.697,1.779c0.224,0.508,0.72,0.811,1.24,0.811c0.179,0,0.363-0.037,0.539-0.112
	c3.611-1.576,5.943-5.142,5.943-9.08c0-1.852-0.517-3.66-1.49-5.226C159.349,4.139,158.515,3.946,157.882,4.34"/>
</svg>
