<?xml version="1.0" encoding="utf-8"?>
<!-- Generator: Adobe Illustrator 16.0.0, SVG Export Plug-In . SVG Version: 6.00 Build 0)  -->
<!DOCTYPE svg PUBLIC "-//W3C//DTD SVG 1.1//EN" "http://www.w3.org/Graphics/SVG/1.1/DTD/svg11.dtd">
<svg version="1.1" id="Layer_1" xmlns="http://www.w3.org/2000/svg" xmlns:xlink="http://www.w3.org/1999/xlink" x="0px" y="0px"
	 width="64px" height="64px" viewBox="0 0 64 64" enable-background="new 0 0 64 64" xml:space="preserve">
<g>
	<g>
		<g>
			<g>
				<path fill="#281646" d="M56.285,32c0,13.409-10.874,24.28-24.281,24.28C18.594,56.28,7.721,45.409,7.721,32
					S18.594,7.72,32.004,7.72C45.411,7.72,56.285,18.591,56.285,32z"/>
			</g>
		</g>
	</g>
	<g>
		<g id="N5LzV9.tif_13_">
			<g>
				<path fill-rule="evenodd" clip-rule="evenodd" fill="#F2F1F1" d="M14.059,23.444c0-0.271,0.192-0.713,0.455-0.832
					c0.307-0.14,0.646-0.127,0.917,0.007c0.351,0.175,0.515,0.541,0.527,0.825c0.053,1.143,0.021,2.289,0.021,3.548
					c1.354-0.853,2.739-1.031,4.167-0.707c2.392,0.546,3.843,2.354,4.024,5.131c0.136,2.061-0.324,3.964-2.033,5.348
					c-1.619,1.311-4.413,1.471-6.203,0.411c-1.097-0.648-1.876-2.202-1.876-2.838C14.059,30.631,14.059,27.15,14.059,23.444z
					 M15.987,33.709c0.018,1.103,0.506,1.892,1.557,2.302c1.697,0.663,3.648-0.143,4.334-1.825c0.489-1.203,0.548-2.46,0.251-3.719
					c-0.607-2.581-3.393-3.554-5.504-1.934c-0.431,0.33-0.64,0.709-0.654,1.315C15.95,30.781,15.977,33.032,15.987,33.709z"/>
				<path fill-rule="evenodd" clip-rule="evenodd" fill="#F2F1F1" d="M41.77,37.114c0,1.105,0.01,2.144-0.005,3.181
					c-0.011,0.811-0.346,1.213-0.96,1.207c-0.606-0.006-0.938-0.432-0.938-1.229c-0.004-3.273-0.003-6.548-0.003-9.821
					c0-2.381,1.379-3.934,3.763-4.241c4.377-0.565,6.555,2.511,6.301,6.337c-0.166,2.486-1.369,4.312-3.848,5.1
					C44.798,38.055,43.767,37.909,41.77,37.114z M41.79,34.303c0.039,0.361,0.207,0.792,0.465,1.035
					c1.751,1.656,4.746,0.964,5.436-1.334c0.307-1.018,0.362-2.194,0.208-3.252c-0.31-2.131-1.655-3.092-3.732-2.938
					c-1.458,0.107-2.392,1.108-2.396,2.567C41.769,30.991,41.719,33.611,41.79,34.303z"/>
				<path fill-rule="evenodd" clip-rule="evenodd" fill="#F2F1F1" d="M26.967,29.288c-0.001-1.895,0.002-3.79-0.001-5.685
					c-0.001-0.534,0.109-1.003,0.705-1.161c0.661-0.176,1.193,0.286,1.202,1.078v11.032c0.001,1.198,0.217,1.469,1.374,1.663
					c0.494,0.083,0.807,0.324,0.784,0.839c-0.024,0.549-0.391,0.768-0.904,0.801c-1.869,0.122-3.114-0.986-3.151-2.882
					C26.939,33.079,26.968,31.184,26.967,29.288z"/>
				<path fill-rule="evenodd" clip-rule="evenodd" fill="#F2F1F1" d="M33.279,29.288c0-1.895,0.002-0.017-0.001-1.911
					c-0.001-0.534,0.109-1.002,0.706-1.161c0.66-0.176,1.188,0.287,1.195,1.078c0.016,1.602,0.005,3.204,0.005,4.806
					c0,2.075-0.002,0.378,0.001,2.453c0.001,1.198,0.218,1.469,1.374,1.663c0.493,0.083,0.807,0.324,0.783,0.839
					c-0.023,0.549-0.39,0.768-0.904,0.801c-1.868,0.122-3.113-0.986-3.15-2.882C33.252,33.079,33.281,31.184,33.279,29.288z"/>
			</g>
		</g>
		<circle fill-rule="evenodd" clip-rule="evenodd" fill="#F2F1F1" cx="34.287" cy="23.422" r="1.017"/>
	</g>
	<g>
		<g>
			<path fill="#99CA5B" d="M40.657,15.091l0.219-0.219l-0.219-0.219l-0.856-0.856l-0.218-0.219l-0.219,0.219l-4.411,4.411
				l-0.219,0.219l0.219,0.219l4.411,4.41l0.219,0.219l0.218-0.219l0.856-0.855l0.219-0.219l-0.219-0.219l-2.422-2.422h14.497
				c-0.388-0.629-0.801-1.24-1.243-1.829H38.235L40.657,15.091z"/>
		</g>
	</g>
	<path fill="#FFD281" d="M62.145,25.227c0-3.23-2.629-5.859-5.859-5.859l-0.192-0.029h-3.379c-0.433-0.741-1.225-1.826-1.225-1.826
		h4.796c4.254,0,7.715,3.461,7.715,7.715"/>
	<path fill="#F48B7C" d="M56.285,31.086c3.23,0,5.859-2.629,5.859-5.859H64c0,4.254-3.461,7.714-7.715,7.714"/>
	<g>
		<g>
			<path fill="#99CA5B" d="M23.343,48.869l-0.219,0.219l0.219,0.219l0.856,0.855l0.218,0.219l0.219-0.219l4.411-4.41l0.219-0.219
				l-0.219-0.219l-4.411-4.41l-0.219-0.219l-0.218,0.219l-0.856,0.855l-0.219,0.219l0.219,0.219l2.422,2.422h-14.51
				c0.354,0.574,0.752,1.175,1.243,1.829h13.267L23.343,48.869z"/>
		</g>
	</g>
	<path fill="#7CCBEA" d="M7.715,31.019 M1.855,38.733c0,3.23,2.629,5.859,5.859,5.859l0.177,0.013l3.363,0.014
		c0,0,0.941,1.417,1.243,1.829H7.715C3.461,46.448,0,42.987,0,38.733 M7.715,32.874"/>
	<path fill="#0D9DB2" d="M7.715,32.874c-3.23,0-5.859,2.629-5.859,5.859H0c0-4.254,3.461-7.715,7.715-7.715"/>
</g>
</svg>
